<svg width="81" height="62" fill="none" xmlns="http://www.w3.org/2000/svg"><path d="M78.02 14.612s-.724-5.651-3.059-8.154c-2.898-3.229-6.2-3.31-7.649-3.471C56.603 2.18 40.5 2.18 40.5 2.18h-.08s-16.104 0-26.813.807c-1.53.161-4.75.242-7.649 3.471-2.254 2.503-3.06 8.154-3.06 8.154s-.724 6.62-.724 13.24v6.216c0 6.62.725 13.24.725 13.24s.724 5.65 3.06 8.153c2.898 3.23 6.763 3.148 8.453 3.471 6.12.646 26.088.808 26.088.808s16.103 0 26.812-.808c1.53-.161 4.75-.242 7.65-3.471 2.254-2.503 3.059-8.154 3.059-8.154s.725-6.62.725-13.24v-6.215c0-6.62-.725-13.24-.725-13.24Z" fill="#63D1BB"/><path d="M40.42 62c-.806 0-20.13-.242-26.249-.807h-.161c-.242-.081-.564-.081-.886-.162-2.013-.242-5.797-.726-8.696-4.036C1.691 54.089.886 48.276.805 47.63c0-.242-.805-6.862-.805-13.482v-6.216c0-6.7.725-13.24.725-13.481v-.081c.08-.646.966-6.378 3.623-9.365 3.22-3.552 6.844-3.956 8.615-4.117.161 0 .322 0 .403-.08h.08C24.156 0 40.26 0 40.42 0h.08c.161 0 16.264 0 26.973.807h.08c.162 0 .242 0 .403.081 1.772.161 5.395.565 8.616 4.117 2.737 2.906 3.542 8.719 3.623 9.365 0 .242.805 6.862.805 13.562v6.216c0 6.701-.725 13.24-.805 13.482v.081c-.08.646-.966 6.458-3.623 9.364-3.221 3.553-6.844 3.956-8.616 4.118-.16 0-.322 0-.402.08h-.08C56.763 62 40.58 62 40.418 62Zm-25.685-5.167c6.038.565 25.12.808 25.765.808.564 0 16.184 0 26.57-.808.162 0 .323 0 .484-.08 1.449-.162 3.703-.404 5.797-2.664 1.45-1.615 2.335-5.57 2.496-6.943.08-.404.725-6.781.725-12.998v-6.216c0-6.297-.725-12.593-.806-12.997-.241-1.938-1.127-5.49-2.496-6.862-2.093-2.341-4.347-2.503-5.797-2.664-.16 0-.322 0-.483-.08-10.548-.808-26.41-.808-26.57-.808h-.081c-.161 0-16.103 0-26.57.807-.162 0-.323 0-.484.08-1.449.162-3.703.404-5.797 2.665-1.45 1.614-2.335 5.57-2.496 6.943-.08.484-.725 6.78-.725 12.997v6.216c0 6.216.725 12.594.725 12.998.242 1.937 1.127 5.49 2.496 6.862 1.852 2.099 4.267 2.421 6.039 2.664.483-.081.805 0 1.208.08Z" fill="#fff"/><path d="M30.838 16.55v28.82L54.832 31 30.838 16.55Z" fill="#fff"/></svg>