<svg width="121" height="92" fill="none" xmlns="http://www.w3.org/2000/svg"><path d="M116.55 21.682s-1.083-8.385-4.571-12.099c-4.33-4.791-9.261-4.911-11.426-5.15C84.556 3.233 60.5 3.233 60.5 3.233h-.12s-24.056 0-40.053 1.198c-2.285.24-7.096.36-11.426 5.151-3.368 3.714-4.571 12.1-4.571 12.1s-1.083 9.822-1.083 19.645v9.224c0 9.823 1.083 19.646 1.083 19.646s1.082 8.385 4.57 12.099c4.33 4.792 10.104 4.672 12.63 5.151 9.14.958 38.97 1.198 38.97 1.198s24.056 0 40.053-1.198c2.285-.24 7.096-.36 11.426-5.151 3.368-3.714 4.571-12.099 4.571-12.099s1.082-9.823 1.082-19.646v-9.224c0-9.823-1.082-19.646-1.082-19.646Z" fill="#63D1BB"/><path d="M60.38 92c-1.203 0-30.07-.36-39.211-1.198h-.24c-.361-.12-.842-.12-1.324-.24-3.007-.359-8.66-1.078-12.99-5.99-4.09-4.312-5.292-12.937-5.412-13.895C1.203 70.317 0 60.495 0 50.672v-9.224c0-9.943 1.083-19.646 1.083-20.005v-.12c.12-.958 1.443-9.464 5.412-13.896 4.811-5.27 10.224-5.87 12.87-6.11.24 0 .48 0 .601-.12h.12C36.084 0 60.14 0 60.38 0h.12c.24 0 24.296 0 40.293 1.198h.121c.24 0 .36 0 .601.12 2.646.24 8.059.838 12.87 6.11 4.089 4.312 5.292 12.937 5.412 13.895 0 .36 1.203 10.182 1.203 20.125v9.224c0 9.943-1.083 19.646-1.203 20.005v.12c-.12.958-1.443 9.583-5.412 13.896-4.811 5.27-10.224 5.87-12.87 6.11-.241 0-.481 0-.601.119h-.121C84.796 92 60.62 92 60.38 92ZM22.01 84.333c9.02.839 37.527 1.198 38.489 1.198.842 0 24.176 0 39.692-1.198.24 0 .481 0 .722-.12 2.165-.239 5.532-.598 8.66-3.953 2.165-2.395 3.488-8.265 3.728-10.302.12-.599 1.083-10.062 1.083-19.286v-9.224c0-9.344-1.083-18.688-1.203-19.287-.361-2.875-1.684-8.145-3.729-10.182-3.127-3.474-6.495-3.713-8.66-3.953-.24 0-.481 0-.721-.12C84.315 6.708 60.62 6.708 60.38 6.708h-.12c-.241 0-24.056 0-39.692 1.198-.241 0-.482 0-.722.12-2.165.24-5.533.599-8.66 3.953-2.165 2.396-3.488 8.266-3.729 10.302-.12.719-1.082 10.063-1.082 19.287v9.224c0 9.224 1.082 18.687 1.082 19.286.361 2.875 1.684 8.146 3.729 10.182 2.766 3.115 6.375 3.594 9.02 3.953.722-.12 1.204 0 1.805.12Z" fill="#fff"/><path d="M46.066 24.557v42.766L81.91 46 46.066 24.557Z" fill="#fff"/></svg>